<svg id="Capa_1" enable-background="new 0 0 511.993 511.993" height="512" viewBox="0 0 511.993 511.993" width="512" xmlns="http://www.w3.org/2000/svg" xmlns:xlink="http://www.w3.org/1999/xlink"><linearGradient id="SVGID_1_" gradientUnits="userSpaceOnUse" x1="255.997" x2="255.997" y1="511.993" y2="0"><stop offset="0" stop-color="#fd3a84"/><stop offset="1" stop-color="#ffa68d"/></linearGradient><linearGradient id="SVGID_2_" gradientUnits="userSpaceOnUse" x1="255.997" x2="255.997" y1="270" y2="59.968"><stop offset="0" stop-color="#ffc2cc"/><stop offset="1" stop-color="#fff2f4"/></linearGradient><g><g><g><path d="m317.801 255c43.437-22.461 73.195-67.817 73.195-120 0-74.443-60.557-135-135-135s-135 60.557-135 135c0 52.183 29.758 97.539 73.195 120h-118.194c0 4.2 1.802 8.401 5.098 11.1l129.902 115.499v115.401c0 5.099 2.703 9.901 7.2 12.9 3.703 2.312 8.833 2.986 14.399.601l60-30c5.101-2.701 8.401-7.8 8.401-13.5v-85.401l129.902-115.5c3.296-2.699 5.098-6.899 5.098-11.1z" fill="url(#SVGID_1_)"/></g></g><g><g><path d="m187.574 180h11.719l-2.842 11.367c-2.021 8.027 2.871 16.172 10.913 18.179 7.938 2.008 16.158-2.794 18.179-10.913l4.658-18.633h29.092l-2.842 11.367c-2.021 8.027 2.871 16.172 10.913 18.179 7.938 2.008 16.158-2.794 18.179-10.913l4.658-18.633h19.219c8.291 0 15-6.709 15-15s-6.709-15-15-15h-11.719l7.5-30h19.219c8.291 0 15-6.709 15-15s-6.709-15-15-15h-11.719l2.842-11.367c2.021-8.027-2.871-16.172-10.913-18.179-8.042-2.109-16.187 2.856-18.179 10.913l-4.658 18.633h-29.092l2.842-11.367c2.021-8.027-2.871-16.172-10.913-18.179-8.057-2.109-16.187 2.856-18.179 10.913l-4.658 18.633h-19.219c-8.291 0-15 6.709-15 15s6.709 15 15 15h11.719l-7.5 30h-19.219c-8.291 0-15 6.709-15 15s6.709 15 15 15zm57.627-60h29.092l-7.5 30h-29.092zm205.796 120h-390c-8.291 0-15 6.709-15 15s6.709 15 15 15h390c8.291 0 15-6.709 15-15s-6.709-15-15-15z" fill="url(#SVGID_2_)"/></g></g></g></svg>