<svg height="511pt" viewBox="-1 1 511 511.99898" width="511pt" xmlns="http://www.w3.org/2000/svg"><path d="m485.640625 352.929688-51.367187-51.367188c-15.210938-15.210938-35.4375-23.585938-56.949219-23.585938s-41.734375 8.375-56.945313 23.585938l-22.710937 22.710938-109.441407-109.441407 28.292969-28.296875c28.320313-28.320312 28.320313-74.40625 0-102.726562l-62.535156-62.535156c-13.71875-13.71875-31.960937-21.273438-51.363281-21.273438-19.40625 0-37.644532 7.554688-51.363282 21.277344l-5.582031 5.582031c-29.132812 29.128906-45.175781 67.859375-45.175781 109.058594s16.042969 79.929687 45.171875 109.058593l221.851563 221.847657c29.128906 29.132812 67.859374 45.175781 109.054687 45.175781 41.199219 0 79.929687-16.042969 109.0625-45.175781 15.210937-15.210938 23.585937-35.433594 23.585937-56.945313 0-21.511718-8.375-41.738281-23.585937-56.949218zm0 0" fill="#2386e8"/><path d="m154.875 354.179688 86.351562-86.347657-53-53 28.292969-28.296875c28.320313-28.320312 28.320313-74.40625 0-102.726562l-62.535156-62.535156c-13.71875-13.71875-31.960937-21.273438-51.363281-21.273438-19.40625 0-37.644532 7.554688-51.363282 21.277344l-5.582031 5.582031c-29.132812 29.128906-45.175781 67.859375-45.175781 109.058594s16.042969 79.929687 45.171875 109.058593zm0 0" fill="#48b1ff"/><path d="m377.914062 217.671875c-8.425781 0-15.257812-6.832031-15.257812-15.261719 0-32.082031-26.101562-58.183594-58.183594-58.183594-8.425781 0-15.261718-6.832031-15.261718-15.257812 0-8.429688 6.835937-15.261719 15.261718-15.261719 48.910156 0 88.703125 39.792969 88.703125 88.703125 0 8.429688-6.832031 15.261719-15.261719 15.261719zm0 0" fill="#8bc8e8"/><path d="m304.472656 144.226562c16.59375 0 31.574219 6.992188 42.183594 18.175782l21.585938-21.585938c-16.140626-16.703125-38.761719-27.109375-63.769532-27.109375-8.425781 0-15.261718 6.832031-15.261718 15.261719 0 8.425781 6.835937 15.257812 15.261718 15.257812zm0 0" fill="#bae5e5"/><path d="m470.171875 209.101562c-8.425781 0-15.257813-6.832031-15.257813-15.261718 0-73.015625-59.402343-132.414063-132.417968-132.414063-8.425782 0-15.261719-6.832031-15.261719-15.261719 0-8.425781 6.835937-15.261718 15.261719-15.261718 89.84375 0 162.9375 73.097656 162.9375 162.9375 0 8.429687-6.832032 15.261718-15.261719 15.261718zm0 0" fill="#8bc8e8"/><path d="m322.496094 61.425781c34.660156 0 66.246094 13.390625 89.871094 35.261719l21.585937-21.582031c-29.167969-27.390625-68.382813-44.199219-111.457031-44.199219-8.425782 0-15.261719 6.832031-15.261719 15.257812 0 8.429688 6.832031 15.261719 15.261719 15.261719zm0 0" fill="#bae5e5"/><path d="m35.40625 38.175781 164.738281 164.734375 16.859375-16.867187c.042969-.042969.085938-.085938.128906-.128907 13.433594-13.757812 20.769532-31.921874 20.664063-51.152343-.105469-19.246094-7.664063-37.34375-21.28125-50.957031l-62.53125-62.523438c-13.71875-13.722656-31.957031-21.28125-51.363281-21.28125-19.402344 0-37.644532 7.558594-51.359375 21.269531l-5.582031 5.574219zm0 0" fill="#cdf5ff"/><path d="m485.65625 466.800781c15.199219-15.195312 23.566406-35.410156 23.566406-56.914062 0-21.515625-8.375-41.738281-23.585937-56.949219l-51.367188-51.378906c-31.402343-31.386719-82.492187-31.386719-113.890625 0l-10.789062 10.796875 164.625 164.625zm0 0" fill="#abddff"/><path d="m217.003906 186.042969c.042969-.042969.085938-.085938.128906-.128907 13.433594-13.757812 20.769532-31.921874 20.664063-51.152343-.105469-19.246094-7.664063-37.34375-21.28125-50.957031l-62.53125-62.523438c-13.71875-13.722656-31.957031-21.28125-51.363281-21.28125-19.402344 0-37.644532 7.558594-51.359375 21.269531l-5.582031 5.574219-10.273438 11.332031 164.738281 164.734375zm0 0" fill="#cdf5ff"/></svg>