<svg height="162" viewBox="0 0 225 162" fill="none" xmlns="http://www.w3.org/2000/svg">
    <g id="soc-logo 1">
        <g id="SOC">
            <path id="Subtract" fill-rule="evenodd" clip-rule="evenodd"
                d="M0 161H230V0H0V161ZM18.33 44.87C18.2617 48.6234 18.7092 52.3684 19.66 56C21.48 62.52 26.17 69.6567 33.73 77.41L42.2 85.88C50.1067 93.78 54.06 102.227 54.06 111.22C54.06 115.693 53.95 119.72 53.73 123.3C53.51 126.887 52.6867 129.553 51.26 131.3C49.8334 133.047 47.2567 133.92 43.53 133.92C39.7967 133.92 37.2434 132.067 35.87 128.36C34.4967 124.653 33.81 118.06 33.81 108.58V95.39H19V108.72C19 118.113 19.9067 125.717 21.72 131.53C24.8667 141.843 32.31 147 44.05 147C53.7634 146.967 60.35 143.993 63.81 138.08C67.27 132.167 69 123.61 69 112.41C69 98.6567 63.7067 86.2167 53.12 75.09L44.28 65.73C44.0334 65.4433 42.83 64.18 40.67 61.94C38.5873 59.824 36.7553 57.4752 35.21 54.94C33.74 52.49 33 48.6 33 43.3C33 38 33.71 34.03 35.38 31.33C37.05 28.63 39.7 27.27 43.38 27.27C45.0877 27.1935 46.7724 27.6859 48.17 28.67C49.39 29.6033 50.42 31.4967 51.26 34.35C52.1 37.2033 52.52 42.7533 52.52 51V59.66H67.1V52C67.205 45.4124 66.7129 38.8288 65.63 32.33C63.3767 20.2433 55.96 14.2 43.38 14.2C33.6134 14.2133 26.9967 16.9833 23.53 22.51C20.0634 28.0367 18.33 35.49 18.33 44.87ZM119.93 50.16C119.93 41.86 119.263 35.9766 117.93 32.51C116.597 29.0433 113.93 27.3133 109.93 27.32C105.93 27.32 103.13 29.0866 101.53 32.62C99.93 36.1533 99.1367 41.9733 99.15 50.08V108.36C99.15 118.233 99.8367 124.95 101.21 128.51C102.583 132.07 105.36 133.85 109.54 133.85C113.707 133.85 116.48 132.043 117.86 128.43C119.24 124.817 119.93 118.127 119.93 108.36V50.16ZM83.9 51C83.9 36.2733 86.5667 26.1566 91.9 20.65C96.0734 16.33 102.137 14.1666 110.09 14.16C121.683 14.16 129.1 18.9266 132.34 28.46C134.233 34.1533 135.18 41.6666 135.18 51V108.17C135.18 121.683 133.29 131.517 129.51 137.67C125.73 143.823 119.11 146.933 109.65 147C100.19 147 93.5234 143.907 89.65 137.72C85.7767 131.533 83.86 121.697 83.9 108.21V51ZM155.88 31.59C154.26 36.21 153.45 43.43 153.45 53.25V107.22C153.45 120.54 155.413 130.5 159.34 137.1C163.267 143.7 169.85 147 179.09 147C188.283 147 194.733 143.8 198.44 137.4C202.147 131 204 121 204 107.4V93.18H188.9V107.55C188.9 117.377 188.233 124.253 186.9 128.18C185.567 132.107 182.9 134.07 178.9 134.07C174.9 134.07 172.2 132.117 170.8 128.21C169.4 124.303 168.7 117.44 168.7 107.62V51.48C168.7 43.16 169.467 37.0834 171 33.25C171.579 31.485 172.726 29.9611 174.262 28.9156C175.797 27.8702 177.635 27.3619 179.49 27.47C181.226 27.4054 182.935 27.9074 184.36 28.9C185.627 29.8534 186.717 31.7934 187.63 34.72C188.543 37.6467 189 43.26 189 51.56V66H203.91V51.63C203.91 42.2567 202.977 34.7434 201.11 29.09C197.87 19.27 190.65 14.3334 179.45 14.28C171.45 14.3267 165.36 16.71 161.18 21.43C159.267 23.5834 157.5 26.97 155.88 31.59Z"
                fill="white" />
        </g>
    </g>
</svg>