<svg width="769" height="162" viewBox="0 0 769 162" fill="none" xmlns="http://www.w3.org/2000/svg">
    <g id="soc-logo 1">
        <g id="SOC">
            <path id="Subtract" fill-rule="evenodd" clip-rule="evenodd"
                d="M0 161H230V0H0V161ZM18.33 44.87C18.2617 48.6234 18.7092 52.3684 19.66 56C21.48 62.52 26.17 69.6567 33.73 77.41L42.2 85.88C50.1067 93.78 54.06 102.227 54.06 111.22C54.06 115.693 53.95 119.72 53.73 123.3C53.51 126.887 52.6867 129.553 51.26 131.3C49.8334 133.047 47.2567 133.92 43.53 133.92C39.7967 133.92 37.2434 132.067 35.87 128.36C34.4967 124.653 33.81 118.06 33.81 108.58V95.39H19V108.72C19 118.113 19.9067 125.717 21.72 131.53C24.8667 141.843 32.31 147 44.05 147C53.7634 146.967 60.35 143.993 63.81 138.08C67.27 132.167 69 123.61 69 112.41C69 98.6567 63.7067 86.2167 53.12 75.09L44.28 65.73C44.0334 65.4433 42.83 64.18 40.67 61.94C38.5873 59.824 36.7553 57.4752 35.21 54.94C33.74 52.49 33 48.6 33 43.3C33 38 33.71 34.03 35.38 31.33C37.05 28.63 39.7 27.27 43.38 27.27C45.0877 27.1935 46.7724 27.6859 48.17 28.67C49.39 29.6033 50.42 31.4967 51.26 34.35C52.1 37.2033 52.52 42.7533 52.52 51V59.66H67.1V52C67.205 45.4124 66.7129 38.8288 65.63 32.33C63.3767 20.2433 55.96 14.2 43.38 14.2C33.6134 14.2133 26.9967 16.9833 23.53 22.51C20.0634 28.0367 18.33 35.49 18.33 44.87ZM119.93 50.16C119.93 41.86 119.263 35.9766 117.93 32.51C116.597 29.0433 113.93 27.3133 109.93 27.32C105.93 27.32 103.13 29.0866 101.53 32.62C99.93 36.1533 99.1367 41.9733 99.15 50.08V108.36C99.15 118.233 99.8367 124.95 101.21 128.51C102.583 132.07 105.36 133.85 109.54 133.85C113.707 133.85 116.48 132.043 117.86 128.43C119.24 124.817 119.93 118.127 119.93 108.36V50.16ZM83.9 51C83.9 36.2733 86.5667 26.1566 91.9 20.65C96.0734 16.33 102.137 14.1666 110.09 14.16C121.683 14.16 129.1 18.9266 132.34 28.46C134.233 34.1533 135.18 41.6666 135.18 51V108.17C135.18 121.683 133.29 131.517 129.51 137.67C125.73 143.823 119.11 146.933 109.65 147C100.19 147 93.5234 143.907 89.65 137.72C85.7767 131.533 83.86 121.697 83.9 108.21V51ZM155.88 31.59C154.26 36.21 153.45 43.43 153.45 53.25V107.22C153.45 120.54 155.413 130.5 159.34 137.1C163.267 143.7 169.85 147 179.09 147C188.283 147 194.733 143.8 198.44 137.4C202.147 131 204 121 204 107.4V93.18H188.9V107.55C188.9 117.377 188.233 124.253 186.9 128.18C185.567 132.107 182.9 134.07 178.9 134.07C174.9 134.07 172.2 132.117 170.8 128.21C169.4 124.303 168.7 117.44 168.7 107.62V51.48C168.7 43.16 169.467 37.0834 171 33.25C171.579 31.485 172.726 29.9611 174.262 28.9156C175.797 27.8702 177.635 27.3619 179.49 27.47C181.226 27.4054 182.935 27.9074 184.36 28.9C185.627 29.8534 186.717 31.7934 187.63 34.72C188.543 37.6467 189 43.26 189 51.56V66H203.91V51.63C203.91 42.2567 202.977 34.7434 201.11 29.09C197.87 19.27 190.65 14.3334 179.45 14.28C171.45 14.3267 165.36 16.71 161.18 21.43C159.267 23.5834 157.5 26.97 155.88 31.59Z"
                fill="#343a40" />
        </g>
        <g id="Media">
            <path id="Vector"
                d="M384.2 101H459.2V124.38H360.81V53.79L384.19 53.93H449.35V77.31H384.2V101ZM459.2 14.3V37.63H360.81V14.25L459.2 14.3Z"
                fill="#343a40" />
            <path id="Vector_2"
                d="M575.79 69.49C575.801 82.9761 570.871 95.9991 561.933 106.098C552.995 116.197 540.668 122.672 527.28 124.3H527.02H475.78V54H499.16V101H525.47C532.976 99.835 539.818 96.0231 544.759 90.2532C549.7 84.4834 552.414 77.1363 552.41 69.54C552.41 67.4248 552.202 65.3147 551.79 63.24C550.246 55.6284 545.98 48.841 539.79 44.15C536.007 41.2677 531.621 39.2781 526.96 38.33C525.357 38.009 523.733 37.8085 522.1 37.73H475.78V14.25L524.78 14.43C538.655 15.4911 551.618 21.7527 561.074 31.9618C570.53 42.1709 575.783 55.5743 575.78 69.49H575.79Z"
                fill="#343a40" />
            <path id="Vector_3" d="M615.8 14.04V124.33H592.42V14.04H615.8Z" fill="#343a40" />
            <path id="Vector_4"
                d="M754.33 124.33H725L723.75 122.07L701.81 82.4L691.05 63L690.62 62.22L675.91 35.8V35.71L677.08 33.59L686.66 16.3L687.78 13.87H693.4L694.48 16.29L704.06 33.59L750.68 117.82L754.28 124.33H754.33ZM666.61 52.6L681.28 79L657.45 122.07L656.28 124.33H626.91L630.51 117.82L666.61 52.6Z"
                fill="#343a40" />
            <path id="Vector_5"
                d="M244.84 63.76L268.28 87.1V124.33H244.84V63.76ZM343.98 13.46V124.33H320.6V64.8L308.2 77.21L303.42 82L302.13 83.28L297.86 87.56L294.76 90.65L279.02 74.9L268.28 64.1L244.84 40.72V13.46H250.66L272.9 35.7L294.76 57.57L338.87 13.46H343.98Z"
                fill="#343a40" />
            <path id="Vector_6"
                d="M245.28 153.493V135.251H250.43C252.017 135.251 253.42 135.601 254.639 136.303C255.859 137.005 256.799 138.003 257.458 139.298C258.127 140.592 258.465 142.079 258.473 143.758V144.923C258.473 146.644 258.139 148.152 257.471 149.446C256.811 150.741 255.863 151.735 254.627 152.428C253.399 153.122 251.966 153.477 250.329 153.493H245.28ZM247.686 137.23V151.526H250.217C252.071 151.526 253.512 150.95 254.539 149.797C255.575 148.644 256.093 147.003 256.093 144.873V143.808C256.093 141.737 255.604 140.129 254.627 138.984C253.658 137.832 252.28 137.247 250.492 137.23H247.686Z"
                fill="#343a40" />
            <path id="Vector_7" d="M271.629 153.493H269.223V135.251H271.629V153.493Z" fill="#343a40" />
            <path id="Vector_8"
                d="M296.436 151.1C295.818 151.986 294.953 152.65 293.843 153.092C292.74 153.527 291.454 153.744 289.984 153.744C288.497 153.744 287.177 153.397 286.024 152.704C284.872 152.002 283.978 151.008 283.343 149.722C282.717 148.436 282.395 146.945 282.378 145.249V143.658C282.378 140.91 283.017 138.78 284.295 137.268C285.582 135.756 287.386 135 289.708 135C291.612 135 293.145 135.489 294.306 136.466C295.467 137.435 296.177 138.813 296.436 140.601H294.03C293.579 138.187 292.143 136.98 289.72 136.98C288.108 136.98 286.885 137.548 286.049 138.684C285.222 139.811 284.805 141.448 284.796 143.595V145.086C284.796 147.133 285.264 148.761 286.2 149.973C287.135 151.175 288.401 151.777 289.996 151.777C290.898 151.777 291.688 151.676 292.364 151.476C293.041 151.276 293.6 150.937 294.043 150.461V146.364H289.821V144.41H296.436V151.1Z"
                fill="#343a40" />
            <path id="Vector_9" d="M309.967 153.493H307.562V135.251H309.967V153.493Z" fill="#343a40" />
            <path id="Vector_10" d="M333.91 137.23H328.047V153.493H325.653V137.23H319.802V135.251H333.91V137.23Z"
                fill="#343a40" />
            <path id="Vector_11"
                d="M353.618 148.732H345.975L344.259 153.493H341.778L348.744 135.251H350.849L357.828 153.493H355.36L353.618 148.732ZM346.702 146.752H352.904L349.797 138.22L346.702 146.752Z"
                fill="#343a40" />
            <path id="Vector_12" d="M369.63 151.526H378.275V153.493H367.212V135.251H369.63V151.526Z" fill="#343a40" />
            <path id="Vector_13"
                d="M404.348 135.251L410.312 150.135L416.276 135.251H419.396V153.493H416.99V146.389L417.216 138.721L411.227 153.493H409.385L403.408 138.759L403.646 146.389V153.493H401.241V135.251H404.348Z"
                fill="#343a40" />
            <path id="Vector_14"
                d="M440.645 148.732H433.002L431.285 153.493H428.805L435.771 135.251H437.876L444.855 153.493H442.386L440.645 148.732ZM433.729 146.752H439.931L436.823 138.22L433.729 146.752Z"
                fill="#343a40" />
            <path id="Vector_15"
                d="M460.929 146.113H456.644V153.493H454.226V135.251H460.265C462.32 135.251 463.899 135.718 465.001 136.654C466.112 137.589 466.668 138.951 466.668 140.738C466.668 141.874 466.359 142.864 465.74 143.708C465.131 144.552 464.279 145.182 463.185 145.6L467.47 153.343V153.493H464.889L460.929 146.113ZM456.644 144.146H460.34C461.535 144.146 462.483 143.837 463.185 143.219C463.895 142.601 464.25 141.774 464.25 140.738C464.25 139.611 463.911 138.746 463.235 138.145C462.566 137.543 461.597 137.239 460.328 137.23H456.644V144.146Z"
                fill="#343a40" />
            <path id="Vector_16"
                d="M481.615 145.011L479.384 147.329V153.493H476.979V135.251H479.384V144.272L487.491 135.251H490.398L483.218 143.307L490.961 153.493H488.08L481.615 145.011Z"
                fill="#343a40" />
            <path id="Vector_17"
                d="M510.306 145.061H502.4V151.526H511.584V153.493H499.995V135.251H511.459V137.23H502.4V143.094H510.306V145.061Z"
                fill="#343a40" />
            <path id="Vector_18" d="M534.111 137.23H528.248V153.493H525.855V137.23H520.003V135.251H534.111V137.23Z"
                fill="#343a40" />
            <path id="Vector_19" d="M546.327 153.493H543.921V135.251H546.327V153.493Z" fill="#343a40" />
            <path id="Vector_20"
                d="M571.686 153.493H569.268L560.084 139.435V153.493H557.665V135.251H560.084L569.293 149.371V135.251H571.686V153.493Z"
                fill="#343a40" />
            <path id="Vector_21"
                d="M596.355 151.1C595.737 151.986 594.873 152.65 593.762 153.092C592.659 153.527 591.373 153.744 589.903 153.744C588.416 153.744 587.096 153.397 585.944 152.704C584.791 152.002 583.897 151.008 583.262 149.722C582.636 148.436 582.314 146.945 582.298 145.249V143.658C582.298 140.91 582.937 138.78 584.215 137.268C585.501 135.756 587.305 135 589.627 135C591.532 135 593.064 135.489 594.225 136.466C595.386 137.435 596.096 138.813 596.355 140.601H593.95C593.499 138.187 592.062 136.98 589.64 136.98C588.028 136.98 586.804 137.548 585.969 138.684C585.142 139.811 584.724 141.448 584.716 143.595V145.086C584.716 147.133 585.183 148.761 586.119 149.973C587.054 151.175 588.32 151.777 589.915 151.777C590.817 151.777 591.607 151.676 592.283 151.476C592.96 151.276 593.52 150.937 593.962 150.461V146.364H589.74V144.41H596.355V151.1Z"
                fill="#343a40" />
            <path id="Vector_22"
                d="M630.672 148.732H623.029L621.313 153.493H618.832L625.798 135.251H627.903L634.882 153.493H632.414L630.672 148.732ZM623.756 146.752H629.958L626.851 138.22L623.756 146.752Z"
                fill="#343a40" />
            <path id="Vector_23"
                d="M657.735 151.1C657.117 151.986 656.252 152.65 655.141 153.092C654.039 153.527 652.752 153.744 651.282 153.744C649.796 153.744 648.476 153.397 647.323 152.704C646.17 152.002 645.277 151.008 644.642 149.722C644.015 148.436 643.694 146.945 643.677 145.249V143.658C643.677 140.91 644.316 138.78 645.594 137.268C646.88 135.756 648.685 135 651.007 135C652.911 135 654.444 135.489 655.605 136.466C656.766 137.435 657.476 138.813 657.735 140.601H655.329C654.878 138.187 653.442 136.98 651.019 136.98C649.407 136.98 648.183 137.548 647.348 138.684C646.521 139.811 646.104 141.448 646.095 143.595V145.086C646.095 147.133 646.563 148.761 647.498 149.973C648.434 151.175 649.699 151.777 651.295 151.777C652.197 151.777 652.986 151.676 653.663 151.476C654.339 151.276 654.899 150.937 655.342 150.461V146.364H651.119V144.41H657.735V151.1Z"
                fill="#343a40" />
            <path id="Vector_24"
                d="M678.997 145.061H671.091V151.526H680.275V153.493H668.685V135.251H680.149V137.23H671.091V143.094H678.997V145.061Z"
                fill="#343a40" />
            <path id="Vector_25"
                d="M704.218 153.493H701.799L692.615 139.435V153.493H690.197V135.251H692.615L701.825 149.371V135.251H704.218V153.493Z"
                fill="#343a40" />
            <path id="Vector_26"
                d="M728.837 147.705C728.612 149.634 727.897 151.125 726.695 152.178C725.5 153.222 723.909 153.744 721.921 153.744C719.766 153.744 718.037 152.971 716.734 151.426C715.439 149.881 714.792 147.813 714.792 145.224V143.47C714.792 141.774 715.093 140.283 715.694 138.997C716.304 137.711 717.164 136.725 718.275 136.04C719.386 135.347 720.672 135 722.134 135C724.072 135 725.625 135.543 726.795 136.629C727.964 137.706 728.645 139.201 728.837 141.114H726.419C726.21 139.661 725.755 138.608 725.053 137.957C724.36 137.305 723.387 136.98 722.134 136.98C720.597 136.98 719.39 137.548 718.513 138.684C717.644 139.82 717.21 141.436 717.21 143.532V145.299C717.21 147.279 717.623 148.853 718.45 150.023C719.277 151.192 720.434 151.777 721.921 151.777C723.257 151.777 724.281 151.476 724.991 150.875C725.709 150.265 726.185 149.208 726.419 147.705H728.837Z"
                fill="#343a40" />
            <path id="Vector_27"
                d="M744.624 144.41L749.385 135.251H752.116L745.826 146.69V153.493H743.421V146.69L737.131 135.251H739.888L744.624 144.41Z"
                fill="#343a40" />
        </g>
    </g>
</svg>